<?xml version="1.0" standalone="no"?>
<!DOCTYPE svg PUBLIC "-//W3C//DTD SVG 20010904//EN"
 "http://www.w3.org/TR/2001/REC-SVG-20010904/DTD/svg10.dtd">
<svg version="1.0" xmlns="http://www.w3.org/2000/svg"
 width="663.000000pt" height="316.000000pt" viewBox="0 0 663.000000 316.000000"
 preserveAspectRatio="xMidYMid meet">

<g transform="translate(0.000000,316.000000) scale(0.100000,-0.100000)"
fill="#000000" stroke="none">
<path d="M3315 1908 c-33 -5 -61 -11 -62 -12 -2 -1 -30 -72 -63 -157 -33 -85
-60 -145 -60 -134 0 11 9 76 20 145 26 165 28 153 -22 147 -24 -4 -69 -9 -100
-13 l-58 -6 -21 -72 c-11 -39 -52 -172 -91 -296 -39 -124 -73 -236 -76 -249
l-5 -24 79 8 c43 4 80 8 81 9 1 0 20 66 42 146 l42 145 -6 -85 c-3 -47 -8
-116 -12 -154 l-6 -69 58 7 c33 4 60 8 61 9 0 1 24 65 53 142 38 103 50 128
46 95 -12 -103 -25 -243 -23 -246 3 -2 161 26 165 30 1 0 9 80 18 176 15 164
35 329 51 428 6 41 6 42 -22 41 -16 -1 -56 -6 -89 -11z"/>
<path d="M4067 1909 c-147 -33 -297 -281 -297 -489 1 -156 90 -221 223 -162
146 65 269 300 254 488 -10 131 -72 187 -180 163z m43 -208 c35 -66 -30 -260
-100 -296 -92 -48 -126 23 -79 164 28 82 91 151 137 151 21 0 35 -7 42 -19z"/>
<path d="M3577 1895 c-32 -7 -62 -16 -66 -21 -4 -5 -18 -65 -30 -134 -12 -69
-40 -208 -61 -309 -22 -102 -38 -187 -36 -189 4 -3 99 13 138 24 11 3 19 25
27 72 7 37 14 81 17 98 5 27 11 32 54 43 180 46 257 343 106 412 -47 21 -68
22 -149 4z m89 -131 c15 -21 15 -32 5 -77 -12 -53 -53 -118 -67 -104 -9 9 26
207 37 207 5 0 16 -11 25 -26z"/>
<path d="M4626 1901 l-60 -6 -64 -100 c-35 -55 -62 -89 -59 -75 15 67 30 160
26 164 -2 2 -36 6 -75 10 l-71 7 -7 -63 c-10 -87 -61 -384 -86 -493 -11 -49
-20 -94 -20 -99 0 -7 54 -3 121 10 25 5 28 11 49 120 13 63 26 117 30 119 5 3
13 -34 20 -83 6 -48 15 -100 19 -117 l7 -29 92 -1 c51 0 92 1 92 3 0 1 -15 51
-34 110 -19 59 -42 135 -51 170 -19 74 -24 63 107 244 43 60 78 111 78 113 0
6 -26 4 -114 -4z"/>
<path d="M1434 1879 c-62 -23 -135 -85 -158 -133 -36 -77 -14 -136 80 -207 77
-59 100 -90 85 -118 -22 -41 -95 -36 -137 10 -9 10 -21 19 -25 19 -16 0 -70
-121 -64 -141 4 -11 25 -32 47 -47 71 -47 192 -33 264 31 54 46 74 95 74 175
0 82 -19 116 -94 174 -27 20 -53 43 -58 52 -12 22 11 65 40 73 30 7 44 -12 38
-49 l-5 -26 64 18 c35 10 69 21 75 25 13 8 13 75 0 109 -21 56 -129 73 -226
35z"/>
<path d="M1852 1879 c-83 -41 -164 -158 -197 -285 -20 -77 -20 -223 0 -272 35
-81 91 -108 169 -78 24 9 60 32 80 52 42 41 90 119 83 137 -7 18 -101 51 -106
36 -2 -6 -16 -25 -31 -42 -36 -40 -60 -32 -60 20 0 50 44 179 80 237 29 45 47
55 66 36 6 -6 32 -3 72 7 61 15 62 16 62 50 0 41 -22 86 -52 107 -32 23 -114
20 -166 -5z"/>
<path d="M2166 1887 c-27 -7 -52 -19 -57 -27 -4 -8 -17 -76 -29 -150 -11 -74
-36 -211 -54 -305 -19 -93 -33 -171 -32 -172 2 -3 149 37 154 42 1 1 12 54 24
116 12 63 24 105 26 94 5 -25 64 -229 67 -233 8 -10 145 44 145 56 0 8 -22 64
-48 126 l-48 112 47 42 c106 95 135 263 52 301 -31 14 -183 13 -247 -2z m170
-131 c18 -14 18 -15 -11 -46 -32 -33 -93 -75 -100 -68 -3 2 1 32 7 66 l12 62
36 0 c20 0 45 -6 56 -14z"/>
<path d="M2583 1893 c-61 -5 -53 10 -87 -173 -39 -209 -56 -325 -56 -383 0
-46 4 -57 30 -82 69 -66 215 -34 281 62 32 45 60 163 117 475 l19 108 -71 -6
c-39 -4 -73 -8 -74 -10 -2 -1 -19 -85 -38 -186 -47 -248 -65 -319 -87 -332
-21 -13 -39 8 -32 39 3 11 25 119 50 240 25 121 48 228 51 238 4 14 0 17 -23
15 -15 -1 -51 -3 -80 -5z"/>
<path d="M4846 1889 c-43 -5 -80 -10 -82 -12 -12 -12 -119 -637 -110 -637 6 0
72 9 148 21 l136 21 4 47 c3 25 2 49 -1 53 -3 3 -30 2 -60 -3 -29 -6 -55 -8
-58 -6 -2 3 1 39 8 81 l13 76 57 0 c32 0 60 4 63 9 4 5 9 31 13 57 l6 47 -61
-6 c-34 -3 -62 -4 -62 -2 0 4 16 88 26 132 4 20 11 22 71 25 l67 3 11 53 12
52 -61 -1 c-34 -1 -96 -5 -140 -10z"/>
<path d="M5162 1889 c-84 -14 -87 -17 -100 -113 -6 -47 -30 -185 -53 -307 -22
-121 -39 -222 -36 -225 2 -3 35 4 73 14 l69 19 18 99 c10 54 20 106 23 114 3
8 21 -39 41 -105 19 -66 37 -122 39 -124 2 -3 36 5 74 18 l69 22 -19 47 c-10
26 -33 81 -50 123 l-32 75 59 60 c46 46 63 72 77 116 26 85 9 146 -48 168 -32
12 -129 11 -204 -1z m147 -128 c8 -5 11 -16 7 -29 -8 -25 -71 -77 -110 -92
-24 -9 -27 -8 -22 7 2 10 7 34 11 53 13 69 14 70 58 70 23 0 48 -4 56 -9z"/>
</g>
</svg>
